
<!-- Generator: visioncortex VTracer 0.6.4 -->
<svg version="1.1" xmlns="http://www.w3.org/2000/svg" viewBox="0 0 512 512" preserveAspectRatio="xMidYMid meet">
<path d="M0 0 C168.96 0 337.92 0 512 0 C512 168.96 512 337.92 512 512 C343.04 512 174.08 512 0 512 C0 343.04 0 174.08 0 0 Z " fill="#FEFEFE" transform="translate(0,0)"/>
<path d="M0 0 C22.917 -0.569 43.655 7.119 60.375 22.863 C61.146 23.62 61.917 24.377 62.711 25.156 C63.399 25.82 64.088 26.484 64.797 27.168 C80.061 43.006 86.34 64.526 85.98 86.07 C85.394 101.364 79.903 115.938 70.711 128.156 C70.488 130.193 70.488 130.193 71.711 132.156 C73.616 133.993 75.602 135.541 77.711 137.156 C79.031 136.166 80.351 135.176 81.711 134.156 C85.42 137.816 89.123 141.482 92.819 145.155 C94.079 146.404 95.34 147.651 96.603 148.897 C98.414 150.684 100.219 152.478 102.023 154.273 C102.592 154.832 103.161 155.39 103.747 155.966 C105.107 157.325 106.414 158.736 107.711 160.156 C107.711 160.816 107.711 161.476 107.711 162.156 C108.371 162.156 109.031 162.156 109.711 162.156 C112.077 164.313 113.51 166.086 114.109 169.281 C114.347 174.688 113.378 177.979 109.711 182.156 C105.291 184.899 100.761 184.822 95.711 184.156 C92.898 182.469 92.898 182.469 90.711 180.156 C89.535 179.043 89.535 179.043 88.336 177.906 C86.272 175.744 84.334 173.555 82.398 171.281 C79.348 167.751 76.058 164.715 72.512 161.691 C70.459 159.941 68.505 158.174 66.711 156.156 C66.711 155.496 66.711 154.836 66.711 154.156 C65.721 153.826 64.731 153.496 63.711 153.156 C64.701 150.186 64.701 150.186 65.711 147.156 C63.482 144.511 63.482 144.511 60.711 142.156 C56.962 142.392 54.638 144.582 51.773 146.844 C34.646 159.604 13.731 163.952 -7.289 162.156 C-16.037 160.859 -24.413 158.174 -32.289 154.156 C-33.279 153.713 -33.279 153.713 -34.289 153.262 C-39.933 150.671 -44.53 147.11 -49.289 143.156 C-50.033 142.571 -50.777 141.986 -51.543 141.383 C-66.531 129.028 -76.454 108.878 -78.564 89.651 C-80.182 66.127 -72.377 44.794 -56.977 26.969 C-41.783 10.819 -22.277 1.058 0 0 Z " fill="#5DB8AE" transform="translate(245.2890625,118.84375)"/>
<path d="M0 0 C22.917 -0.569 43.655 7.119 60.375 22.863 C61.146 23.62 61.917 24.377 62.711 25.156 C63.399 25.82 64.088 26.484 64.797 27.168 C80.061 43.006 86.34 64.526 85.98 86.07 C85.394 101.364 79.903 115.938 70.711 128.156 C70.488 130.193 70.488 130.193 71.711 132.156 C73.616 133.993 75.602 135.541 77.711 137.156 C79.031 136.166 80.351 135.176 81.711 134.156 C85.42 137.816 89.123 141.482 92.819 145.155 C94.079 146.404 95.34 147.651 96.603 148.897 C98.414 150.684 100.219 152.478 102.023 154.273 C102.592 154.832 103.161 155.39 103.747 155.966 C105.107 157.325 106.414 158.736 107.711 160.156 C107.711 160.816 107.711 161.476 107.711 162.156 C108.371 162.156 109.031 162.156 109.711 162.156 C112.077 164.313 113.51 166.086 114.109 169.281 C114.347 174.688 113.378 177.979 109.711 182.156 C105.291 184.899 100.761 184.822 95.711 184.156 C92.898 182.469 92.898 182.469 90.711 180.156 C89.535 179.043 89.535 179.043 88.336 177.906 C86.272 175.744 84.334 173.555 82.398 171.281 C79.348 167.751 76.058 164.715 72.512 161.691 C70.459 159.941 68.505 158.174 66.711 156.156 C66.711 155.496 66.711 154.836 66.711 154.156 C65.721 153.826 64.731 153.496 63.711 153.156 C64.701 150.186 64.701 150.186 65.711 147.156 C63.482 144.511 63.482 144.511 60.711 142.156 C56.962 142.392 54.638 144.582 51.773 146.844 C34.646 159.604 13.731 163.952 -7.289 162.156 C-16.037 160.859 -24.413 158.174 -32.289 154.156 C-33.279 153.713 -33.279 153.713 -34.289 153.262 C-39.933 150.671 -44.53 147.11 -49.289 143.156 C-50.033 142.571 -50.777 141.986 -51.543 141.383 C-66.531 129.028 -76.454 108.878 -78.564 89.651 C-80.182 66.127 -72.377 44.794 -56.977 26.969 C-41.783 10.819 -22.277 1.058 0 0 Z M-49.289 35.156 C-62.26 51.243 -68.063 70.104 -66.591 90.713 C-64.558 107.171 -55.666 120.554 -44.289 132.156 C-43.761 132.709 -43.232 133.262 -42.688 133.832 C-29.742 146.147 -11.814 150.813 5.532 150.625 C23.745 150.024 41.188 143.022 54.086 130.023 C67.872 114.965 74.219 97.506 73.98 77.031 C72.805 60.126 65.054 42.223 52.236 30.848 C35.735 16.98 17.805 10.906 -3.828 11.938 C-21.397 13.493 -37.457 22.267 -49.289 35.156 Z " fill="#1C4755" transform="translate(245.2890625,118.84375)"/>
<path d="M0 0 C1.285 -0.029 2.569 -0.058 3.893 -0.088 C5.131 -0.096 6.369 -0.105 7.645 -0.113 C9.346 -0.135 9.346 -0.135 11.081 -0.157 C14.913 0.422 16.56 1.487 19.188 4.312 C19.676 6.672 19.676 6.672 19.5 9.062 C19.455 9.862 19.41 10.661 19.363 11.484 C19.276 12.389 19.276 12.389 19.188 13.312 C20.065 13.281 20.065 13.281 20.96 13.249 C23.619 13.166 26.278 13.114 28.938 13.062 C30.318 13.012 30.318 13.012 31.727 12.961 C38.573 12.862 38.573 12.862 41.766 15.203 C43.886 18.349 44.318 20.091 44.349 23.851 C44.358 24.792 44.368 25.734 44.378 26.704 C44.382 27.724 44.386 28.745 44.391 29.797 C44.396 30.845 44.402 31.894 44.408 32.974 C44.417 35.196 44.424 37.419 44.428 39.642 C44.437 43.035 44.468 46.427 44.5 49.82 C44.507 51.979 44.512 54.138 44.516 56.297 C44.528 57.31 44.54 58.322 44.553 59.366 C44.536 64.688 44.478 68.879 41.188 73.312 C36.868 76.219 33.42 76.681 28.281 76.641 C27.283 76.639 27.283 76.639 26.264 76.637 C24.071 76.628 21.88 76.596 19.688 76.562 C18.15 76.547 16.612 76.532 15.074 76.518 C11.817 76.485 8.56 76.439 5.304 76.386 C0.952 76.318 -3.398 76.289 -7.75 76.27 C-11.222 76.249 -14.693 76.205 -18.164 76.156 C-19.839 76.135 -21.515 76.123 -23.191 76.118 C-25.542 76.109 -27.891 76.068 -30.242 76.02 C-31.284 76.025 -31.284 76.025 -32.346 76.031 C-35.779 75.928 -37.817 75.31 -40.746 73.499 C-43.873 68.677 -43.51 64.257 -43.441 58.625 C-43.444 57.49 -43.446 56.354 -43.449 55.185 C-43.448 52.788 -43.434 50.39 -43.409 47.993 C-43.375 44.325 -43.389 40.66 -43.408 36.992 C-43.401 34.661 -43.392 32.331 -43.379 30 C-43.384 28.904 -43.389 27.808 -43.394 26.679 C-43.324 22.159 -43.256 19.13 -41.075 15.113 C-38.458 13.031 -37.351 12.718 -34.047 12.824 C-33.157 12.84 -32.268 12.856 -31.352 12.873 C-30.431 12.915 -29.511 12.957 -28.562 13 C-27.627 13.023 -26.691 13.045 -25.727 13.068 C-23.42 13.127 -21.117 13.209 -18.812 13.312 C-18.841 12.217 -18.869 11.121 -18.898 9.992 C-18.806 6.032 -18.185 4.415 -15.812 1.312 C-11.259 -0.964 -4.999 0.037 0 0 Z " fill="#184451" transform="translate(248.8125,167.6875)"/>
<path d="M0 0 C16.447 -0.49 30.96 6.065 43 17 C56.417 30.226 62.606 46.209 63.312 64.938 C62.805 81.527 56.144 96.878 44.566 108.668 C32.159 119.942 16.863 126.733 0 126 C0 119.73 0 113.46 0 107 C2.385 106.951 4.77 106.902 7.227 106.852 C9.55 106.797 11.873 106.74 14.197 106.683 C15.805 106.644 17.413 106.61 19.021 106.578 C21.34 106.532 23.658 106.474 25.977 106.414 C26.689 106.403 27.402 106.391 28.136 106.379 C32.423 106.254 36.158 105.976 40 104 C42.858 98.864 42.289 92.784 42.266 87.055 C42.268 86.007 42.269 84.96 42.271 83.881 C42.273 81.674 42.269 79.466 42.261 77.259 C42.25 73.88 42.261 70.501 42.273 67.121 C42.272 64.974 42.27 62.827 42.266 60.68 C42.27 59.669 42.274 58.659 42.278 57.618 C42.272 56.676 42.265 55.735 42.259 54.765 C42.257 53.939 42.256 53.114 42.254 52.263 C41.971 49.745 41.344 48.139 40 46 C37.651 44.825 36.049 44.8 33.43 44.684 C32.086 44.621 32.086 44.621 30.715 44.557 C29.778 44.517 28.841 44.478 27.875 44.438 C26.458 44.373 26.458 44.373 25.012 44.307 C22.675 44.2 20.337 44.098 18 44 C17.974 43.385 17.948 42.77 17.922 42.137 C17.677 37.185 17.677 37.185 15.359 32.98 C12.275 31.699 9.582 31.479 6.25 31.312 C5.08 31.247 3.909 31.181 2.703 31.113 C1.811 31.076 0.919 31.039 0 31 C-1.081 20.506 -0.825 10.489 0 0 Z " fill="#4FB2A9" transform="translate(250,137)"/>
<path d="M0 0 C4.62 0 9.24 0 14 0 C14 21.78 14 43.56 14 66 C9.38 66 4.76 66 0 66 C-0.33 64.68 -0.66 63.36 -1 62 C-2.33 63.238 -2.33 63.238 -3.688 64.5 C-9.001 68.283 -14.756 67.795 -21 67 C-27.474 65.451 -31.083 62.435 -34.809 57 C-35.202 56.34 -35.595 55.68 -36 55 C-36.374 54.404 -36.748 53.809 -37.133 53.195 C-39.483 47.247 -38.905 39.013 -37.09 32.969 C-34.254 26.914 -30.825 22.856 -24.738 19.902 C-21.458 18.821 -18.64 18.627 -15.188 18.562 C-14.026 18.523 -12.865 18.483 -11.668 18.441 C-8 19 -8 19 0 24 C0 16.08 0 8.16 0 0 Z " fill="#1C4654" transform="translate(387,304)"/>
<path d="M0 0 C0.935 0.289 1.869 0.577 2.832 0.875 C9.75 3.315 15.274 7.496 21 12 C21.853 12.654 22.707 13.307 23.586 13.98 C37.091 25.278 44.712 43.382 46.34 60.594 C46.899 80.455 40.538 97.646 27.801 112.578 C14.689 126.419 -3.072 133.779 -21.948 134.456 C-41.268 134.755 -58.596 128.846 -72.789 115.25 C-85.702 102.109 -94.534 86.267 -94.625 67.438 C-94.162 46.543 -86.659 28.19 -71.473 13.566 C-50.794 -4.44 -25.421 -8.054 0 0 Z M-72.312 23.008 C-84.187 37.026 -89.501 54.822 -88 73 C-85.486 89.603 -77.589 104.065 -64.777 115.016 C-50.347 125.326 -32.657 130.991 -14.925 128.245 C1.925 125.201 18.016 116.966 28.27 102.883 C39.074 85.844 42.15 69.669 37.969 49.965 C33.967 32.729 23.032 19.365 8.402 9.863 C-18.734 -4.998 -51.164 0.978 -72.312 23.008 Z " fill="#E0E2DF" transform="translate(273,135)"/>
<path d="M0 0 C4.62 0 9.24 0 14 0 C14.33 8.25 14.66 16.5 15 25 C17.97 22.525 17.97 22.525 21 20 C26.219 18.26 30.544 18.531 35.688 20.188 C41.404 23.315 44.526 27.014 47 33 C47.247 35.759 47.353 38.275 47.293 41.023 C47.289 41.77 47.284 42.516 47.28 43.285 C47.263 45.648 47.226 48.011 47.188 50.375 C47.172 51.986 47.159 53.596 47.146 55.207 C47.116 59.139 47.057 63.068 47 67 C42.05 67 37.1 67 32 67 C31.944 63.821 31.944 63.821 31.887 60.578 C31.84 58.519 31.789 56.461 31.738 54.402 C31.704 52.975 31.676 51.547 31.654 50.119 C31.62 48.063 31.568 46.009 31.512 43.953 C31.472 42.099 31.472 42.099 31.432 40.208 C30.976 36.823 30.391 35.392 28 33 C25.872 32.333 25.872 32.333 23.562 32.438 C22.801 32.416 22.039 32.394 21.254 32.371 C17.878 33.313 16.899 35.109 15 38 C14.364 41.276 14.364 41.276 14.391 44.832 C14.358 46.124 14.326 47.417 14.293 48.748 C14.278 50.103 14.264 51.458 14.25 52.812 C14.222 54.187 14.192 55.561 14.16 56.936 C14.09 60.29 14.042 63.645 14 67 C9.38 67 4.76 67 0 67 C0 44.89 0 22.78 0 0 Z " fill="#1B4653" transform="translate(107,303)"/>
<path d="M0 0 C4.62 0 9.24 0 14 0 C14.33 12.21 14.66 24.42 15 37 C19.189 32.154 19.189 32.154 23.376 27.307 C23.899 26.703 24.422 26.099 24.961 25.477 C25.495 24.859 26.029 24.241 26.58 23.604 C27.678 22.364 28.829 21.171 30 20 C32.909 19.855 35.72 19.814 38.625 19.875 C39.427 19.884 40.229 19.893 41.055 19.902 C43.037 19.926 45.018 19.962 47 20 C45.136 24.81 41.168 27.931 37.52 31.402 C34.122 34.699 31.491 37.969 29 42 C31.249 44.896 33.5 47.792 35.75 50.688 C36.384 51.504 37.018 52.321 37.672 53.162 C38.6 54.356 38.6 54.356 39.547 55.574 C40.144 56.344 40.742 57.114 41.357 57.908 C42.696 59.612 44.069 61.289 45.453 62.957 C47 65 47 65 47 67 C41.35 67.894 35.547 68.778 30 67 C25.004 63.183 21.858 57.494 19 52 C19 51.34 19 50.68 19 50 C16.9 51.019 16.9 51.019 15 53 C14.297 56.416 14.297 56.416 14.25 60.188 C14.168 62.436 14.085 64.684 14 67 C9.05 67 4.1 67 -1 67 C-1.023 58.412 -1.041 49.824 -1.052 41.236 C-1.057 37.248 -1.064 33.261 -1.075 29.274 C-1.086 25.429 -1.092 21.584 -1.095 17.739 C-1.097 16.269 -1.1 14.799 -1.106 13.329 C-1.113 11.276 -1.114 9.224 -1.114 7.172 C-1.116 6.002 -1.118 4.832 -1.12 3.626 C-1 1 -1 1 0 0 Z " fill="#204A57" transform="translate(245,303)"/>
<path d="M0 0 C4.95 0 9.9 0 15 0 C15.33 11.88 15.66 23.76 16 36 C21.699 30.413 21.699 30.413 25.875 24.562 C27.735 22.323 29.068 21.165 31.969 20.652 C37.002 20.304 41.979 20.593 47 21 C43.141 26.555 38.868 31.275 33.953 35.922 C32.088 37.906 31.143 39.564 30 42 C30.368 42.473 30.735 42.946 31.114 43.434 C32.809 45.619 34.498 47.81 36.188 50 C36.766 50.744 37.344 51.488 37.939 52.254 C41.597 57.006 44.93 61.848 48 67 C42.339 67.966 36.549 68.88 31 67 C25.742 62.836 22.269 56.772 19 51 C16.976 51.765 16.976 51.765 15 53 C14.292 56.34 14.292 56.34 14.25 60.125 C14.167 62.394 14.085 64.663 14 67 C9.38 67 4.76 67 0 67 C0 44.89 0 22.78 0 0 Z " fill="#1E4856" transform="translate(190,303)"/>
<path d="M0 0 C5.095 3.745 8.664 9.208 9.902 15.398 C9.902 18.698 9.902 21.998 9.902 25.398 C-1.318 25.398 -12.538 25.398 -24.098 25.398 C-22.608 30.248 -22.608 30.248 -19.973 32.211 C-16.291 33.732 -12.996 34.003 -9.098 33.398 C-7.082 32.43 -5.079 31.434 -3.098 30.398 C1.101 30.398 3.991 33.686 6.902 36.398 C6.902 37.058 6.902 37.718 6.902 38.398 C0.156 43.905 -5.87 45.684 -14.66 45.711 C-15.92 45.728 -17.179 45.744 -18.477 45.762 C-26.197 44.987 -31.594 40.363 -36.473 34.586 C-39.86 28.111 -39.077 18.43 -37.402 11.535 C-34.833 5.112 -30.948 2.12 -25.098 -1.414 C-17.395 -4.392 -7.28 -3.823 0 0 Z " fill="#184451" transform="translate(333.09765625,325.6015625)"/>
<path d="M0 0 C6.143 0.884 11.451 2.895 17.188 5.188 C18.683 5.749 18.683 5.749 20.209 6.322 C27.53 9.25 27.53 9.25 29.988 13.176 C30.322 14.108 30.656 15.04 31 16 C34.122 18.081 34.933 18.274 38.5 18.25 C39.66 18.258 39.66 18.258 40.844 18.266 C43.295 18.127 43.295 18.127 46 16 C46.125 15.188 46.251 14.376 46.38 13.54 C47 11 47 11 49.13 9.53 C50.05 9.144 50.97 8.757 51.918 8.359 C53.429 7.714 53.429 7.714 54.971 7.055 C56.032 6.624 57.094 6.194 58.188 5.75 C59.23 5.304 60.272 4.858 61.346 4.398 C66.263 2.335 70.693 0.737 76 0 C76.087 4.437 76.14 8.875 76.188 13.312 C76.213 14.575 76.238 15.838 76.264 17.139 C76.273 18.347 76.283 19.556 76.293 20.801 C76.309 21.916 76.324 23.032 76.341 24.181 C76 27 76 27 74.899 28.652 C72.059 30.668 69.737 30.381 66.281 30.388 C65.264 30.396 65.264 30.396 64.226 30.404 C61.983 30.417 59.742 30.409 57.5 30.398 C55.942 30.4 54.384 30.403 52.826 30.407 C49.561 30.412 46.296 30.405 43.031 30.391 C38.844 30.374 34.658 30.384 30.472 30.402 C27.255 30.413 24.038 30.409 20.821 30.401 C19.277 30.399 17.733 30.402 16.189 30.409 C14.032 30.416 11.876 30.405 9.719 30.388 C8.491 30.386 7.263 30.383 5.998 30.381 C3 30 3 30 1.101 28.652 C-0.613 26.081 -0.336 23.854 -0.293 20.801 C-0.283 19.592 -0.274 18.384 -0.264 17.139 C-0.239 15.876 -0.213 14.613 -0.188 13.312 C-0.174 12.038 -0.16 10.764 -0.146 9.451 C-0.111 6.3 -0.062 3.15 0 0 Z " fill="#D58528" transform="translate(211,208)"/>
<path d="M0 0 C1.269 0.001 2.537 0.003 3.844 0.004 C4.544 0.002 5.243 0.001 5.963 -0.001 C8.281 -0.005 10.597 0.006 12.915 0.017 C14.521 0.018 16.128 0.018 17.734 0.018 C21.104 0.02 24.473 0.028 27.842 0.041 C32.167 0.058 36.491 0.062 40.816 0.061 C44.134 0.062 47.452 0.067 50.771 0.074 C52.365 0.078 53.96 0.08 55.555 0.08 C57.782 0.083 60.008 0.091 62.235 0.102 C64.138 0.108 64.138 0.108 66.079 0.114 C69.04 0.247 69.04 0.247 71.04 1.247 C71.04 6.197 71.04 11.147 71.04 16.247 C67.394 17.819 63.747 19.387 60.096 20.947 C58.855 21.479 57.614 22.012 56.374 22.548 C54.592 23.317 52.806 24.079 51.02 24.841 C49.946 25.302 48.873 25.763 47.767 26.237 C45.04 27.247 45.04 27.247 42.04 27.247 C41.71 25.597 41.38 23.947 41.04 22.247 C35.43 22.247 29.82 22.247 24.04 22.247 C24.04 23.897 24.04 25.547 24.04 27.247 C17.398 25.131 10.935 22.68 4.477 20.06 C3.564 19.692 2.65 19.324 1.709 18.945 C-0.515 18.048 -2.738 17.149 -4.96 16.247 C-5.014 13.956 -5.053 11.664 -5.085 9.372 C-5.109 8.096 -5.132 6.82 -5.156 5.505 C-4.9 1.242 -4.285 0.358 0 0 Z " fill="#E69D2D" transform="translate(215.96044921875,185.7527618408203)"/>
<path d="M0 0 C2.605 0.477 5.209 0.956 7.812 1.438 C8.55 1.572 9.288 1.707 10.049 1.846 C13.113 2.414 16.039 3.013 19 4 C20.153 18.194 14.432 30.655 5.898 41.727 C-4.164 53.496 -17.718 61.241 -33 64 C-36.382 64.209 -39.607 64.148 -43 64 C-43 57.73 -43 51.46 -43 45 C-40.615 44.951 -38.23 44.902 -35.773 44.852 C-33.45 44.797 -31.127 44.74 -28.803 44.683 C-27.195 44.644 -25.587 44.61 -23.979 44.578 C-21.66 44.532 -19.342 44.474 -17.023 44.414 C-16.311 44.403 -15.598 44.391 -14.864 44.379 C-10.577 44.254 -6.842 43.976 -3 42 C-0.625 37.431 -0.663 32.594 -0.586 27.539 C-0.567 26.748 -0.547 25.958 -0.527 25.143 C-0.468 22.637 -0.421 20.131 -0.375 17.625 C-0.337 15.918 -0.298 14.211 -0.258 12.504 C-0.162 8.336 -0.078 4.168 0 0 Z " fill="#3A9998" transform="translate(293,199)"/>
<path d="M0 0 C6.143 0.884 11.451 2.895 17.188 5.188 C18.683 5.749 18.683 5.749 20.209 6.322 C27.512 9.242 27.512 9.242 30.055 13.188 C30.367 14.116 30.679 15.044 31 16 C33.77 18.591 35.185 19.046 39 20 C39 22.97 39 25.94 39 29 C33.929 29.217 28.857 29.414 23.784 29.592 C22.058 29.655 20.333 29.724 18.607 29.799 C16.128 29.905 13.648 29.992 11.168 30.074 C10.01 30.13 10.01 30.13 8.829 30.187 C3.596 30.334 3.596 30.334 1.008 28.883 C-0.465 26.13 -0.337 23.911 -0.293 20.801 C-0.283 19.592 -0.274 18.384 -0.264 17.139 C-0.239 15.876 -0.213 14.613 -0.188 13.312 C-0.174 12.038 -0.16 10.764 -0.146 9.451 C-0.111 6.3 -0.062 3.15 0 0 Z " fill="#E79E2C" transform="translate(211,208)"/>
<path d="M0 0 C4.62 0 9.24 0 14 0 C14 15.18 14 30.36 14 46 C9.38 46 4.76 46 0 46 C0 30.82 0 15.64 0 0 Z " fill="#16414F" transform="translate(165,324)"/>
<path d="M0 0 C3.503 2.043 5.774 4.098 7 8 C7.458 13.036 7.045 15.939 4 20 C1.247 23.212 -1.03 23.869 -5.25 24.438 C-10.234 23.856 -12.674 21.627 -16 18 C-17.606 14.787 -17.479 11.485 -17 8 C-12.841 0.256 -8.348 -1.094 0 0 Z " fill="#F7F8F8" transform="translate(380,335)"/>
<path d="M0 0 C0.33 1.32 0.66 2.64 1 4 C-0.125 4.601 -0.125 4.601 -1.273 5.215 C-10.683 10.441 -18.402 16.453 -25 25 C-26.65 24.67 -28.3 24.34 -30 24 C-27.081 13.526 -18.136 6.324 -9 1 C-5.499 -0.598 -3.684 -1.364 0 0 Z " fill="#E0E2DF" transform="translate(230,148)"/>
<path d="M0 0 C2 1.562 2 1.562 3 4 C3.184 6.851 2.929 9.294 2 12 C-0.125 14.062 -0.125 14.062 -3 15 C-6.92 14.931 -9.203 14.552 -12.438 12.312 C-14.498 9.262 -14.602 7.614 -14 4 C-9.933 -1.189 -6.242 -1.449 0 0 Z " fill="#40666F" transform="translate(177,302)"/>
<path d="M0 0 C2.875 1.5 2.875 1.5 5 4 C5.66 6.801 5.61 9.192 5 12 C3.438 14.5 3.438 14.5 1 16 C-3.392 16.719 -5.278 16.481 -9 14 C-11.045 10.933 -11.324 10.331 -11.062 6.875 C-10.519 4.209 -10.099 3.117 -8.312 1 C-5.248 -0.325 -3.313 -0.473 0 0 Z " fill="#2B525E" transform="translate(258,386)"/>
<path d="M0 0 C3.209 2.168 3.915 3.724 5.062 7.438 C5 11 5 11 3 13.938 C-0.719 16.495 -2.571 16.725 -7 16 C-9.438 14.5 -9.438 14.5 -11 12 C-11.61 9.192 -11.66 6.801 -11 4 C-7.74 0.165 -4.957 -0.844 0 0 Z " fill="#214A56" transform="translate(191,386)"/>
<path d="M0 0 C8.58 0 17.16 0 26 0 C26.33 2.31 26.66 4.62 27 7 C18.09 7 9.18 7 0 7 C0 4.69 0 2.38 0 0 Z " fill="#4AACA5" transform="translate(236,174)"/>
<path d="M0 0 C8 0 8 0 11 2 C11.125 5.062 11.125 5.062 11 8 C11.33 8.33 11.66 8.66 12 9 C12.188 11.438 12.188 11.438 12 14 C10 16 10 16 7.617 16.195 C6.712 16.172 5.807 16.149 4.875 16.125 C3.266 16.084 1.657 16.043 0 16 C0 10.72 0 5.44 0 0 Z " fill="#254D59" transform="translate(202,386)"/>
<path d="M0 0 C8.625 -0.25 8.625 -0.25 12 2 C12.27 5.716 12.181 8.457 11 12 C11.875 14.167 11.875 14.167 13 16 C11.68 16 10.36 16 9 16 C8.34 14.35 7.68 12.7 7 11 C6.01 11 5.02 11 4 11 C4 12.65 4 14.3 4 16 C2.68 16 1.36 16 0 16 C0 10.72 0 5.44 0 0 Z " fill="#335863" transform="translate(269,386)"/>
<path d="M0 0 C3.494 1.668 4.827 2.74 7 6 C7 6.99 7 7.98 7 9 C0.4 9 -6.2 9 -13 9 C-12 4 -12 4 -9.312 1.688 C-5.715 -0.145 -3.963 -0.59 0 0 Z " fill="#D6DAD8" transform="translate(322,333)"/>
<path d="M0 0 C1.423 -0.062 2.846 -0.124 4.312 -0.188 C5.513 -0.24 5.513 -0.24 6.738 -0.293 C9 0 9 0 10.77 1.32 C12.66 3.901 12.395 5.905 12 9 C8.565 11.29 7.015 11.178 3 11 C3 12.65 3 14.3 3 16 C2.01 16 1.02 16 0 16 C0 10.72 0 5.44 0 0 Z " fill="#29515D" transform="translate(230,386)"/>
<path d="M0 0 C4.602 0.679 7.157 3.642 10.312 6.812 C10.875 7.347 11.438 7.881 12.018 8.432 C13.613 10.02 13.613 10.02 16 13 C15.837 15.124 15.837 15.124 15 17 C14.01 17.33 13.02 17.66 12 18 C9.041 16.025 6.574 13.448 4 11 C3.376 10.451 2.752 9.902 2.109 9.336 C0.438 7.812 0.438 7.812 -2 5 C-1.716 2.893 -1.524 1.524 0 0 Z " fill="#EAA63D" transform="translate(166,120)"/>
<path d="M0 0 C0.875 0.005 1.749 0.01 2.65 0.016 C3.594 0.019 4.539 0.022 5.511 0.026 C6.505 0.034 7.498 0.042 8.521 0.051 C9.518 0.056 10.515 0.06 11.543 0.065 C14.015 0.077 16.487 0.093 18.959 0.114 C19.584 1.989 19.584 1.989 19.959 4.114 C17.959 6.114 17.959 6.114 15.896 6.341 C14.655 6.325 14.655 6.325 13.388 6.309 C12.493 6.302 11.597 6.296 10.674 6.289 C9.736 6.273 8.799 6.256 7.834 6.239 C6.889 6.23 5.944 6.22 4.97 6.211 C2.633 6.188 0.296 6.155 -2.041 6.114 C-2.423 4.457 -2.755 2.789 -3.041 1.114 C-2.041 0.114 -2.041 0.114 0 0 Z " fill="#2D5460" transform="translate(345.041259765625,197.886474609375)"/>
<path d="M0 0 C0.701 0.289 1.402 0.578 2.125 0.875 C1.665 5.289 -1.3 7.965 -4.188 11.062 C-4.674 11.608 -5.161 12.154 -5.662 12.717 C-10.124 17.563 -10.124 17.563 -13.875 17.875 C-14.535 16.555 -15.195 15.235 -15.875 13.875 C-13.567 11.185 -11.227 8.526 -8.875 5.875 C-8.339 5.247 -7.803 4.619 -7.25 3.973 C-3.522 -0.153 -3.522 -0.153 0 0 Z " fill="#224B57" transform="translate(325.875,115.125)"/>
<path d="M0 0 C1.797 0.059 1.797 0.059 4 1 C5.282 3.379 6.291 5.56 7.25 8.062 C7.518 8.726 7.786 9.389 8.062 10.072 C8.722 11.709 9.363 13.354 10 15 C8.68 15.33 7.36 15.66 6 16 C6 15.01 6 14.02 6 13 C3.36 13 0.72 13 -2 13 C-2.33 13.99 -2.66 14.98 -3 16 C-3.99 16 -4.98 16 -6 16 C-4.252 10.533 -2.342 5.242 0 0 Z " fill="#2B525D" transform="translate(308,386)"/>
<path d="M0 0 C0.686 0.25 1.372 0.5 2.078 0.758 C1.383 4.857 -0.443 6.284 -3.791 8.713 C-4.432 9.161 -5.074 9.609 -5.734 10.07 C-6.364 10.538 -6.994 11.005 -7.643 11.486 C-9.504 12.809 -9.504 12.809 -12.922 14.758 C-15.135 14.38 -15.135 14.38 -16.922 13.758 C-16.812 11.562 -16.812 11.562 -15.922 8.758 C-13.847 6.888 -11.97 5.411 -9.672 3.883 C-9.098 3.468 -8.525 3.053 -7.934 2.625 C-5.102 0.69 -3.472 -0.288 0 0 Z " fill="#E19437" transform="translate(341.921875,134.2421875)"/>
<path d="M0 0 C0.553 0.26 1.106 0.521 1.676 0.789 C2.113 2.852 2.113 2.852 1.676 5.789 C-0.406 8.41 -2.813 10.587 -5.324 12.789 C-6.046 13.449 -6.768 14.109 -7.512 14.789 C-9.324 15.789 -9.324 15.789 -11.574 15.477 C-12.152 15.25 -12.729 15.023 -13.324 14.789 C-12.88 9.961 -10.887 7.784 -7.512 4.414 C-6.203 3.072 -6.203 3.072 -4.867 1.703 C-2.324 -0.211 -2.324 -0.211 0 0 Z " fill="#2A525F" transform="translate(179.32421875,261.2109375)"/>
<path d="M0 0 C-0.109 1.734 -0.109 1.734 -1 4 C-3.074 5.605 -5.01 6.927 -7.25 8.25 C-7.824 8.614 -8.397 8.977 -8.988 9.352 C-12.456 11.453 -14.94 12.458 -19 12 C-18.891 9.773 -18.891 9.773 -18 7 C-15.905 5.278 -14.06 3.975 -11.75 2.625 C-11.176 2.258 -10.603 1.89 -10.012 1.512 C-6.317 -0.719 -4.122 -1.441 0 0 Z " fill="#1F4956" transform="translate(168,245)"/>
<path d="M0 0 C6.6 0 13.2 0 20 0 C20.33 1.32 20.66 2.64 21 4 C20 5 20 5 17.959 5.114 C17.084 5.108 16.21 5.103 15.309 5.098 C14.364 5.094 13.42 5.091 12.447 5.088 C11.454 5.08 10.461 5.071 9.438 5.062 C8.44 5.058 7.443 5.053 6.416 5.049 C3.944 5.037 1.472 5.021 -1 5 C-0.67 3.35 -0.34 1.7 0 0 Z " fill="#1E4855" transform="translate(135,198)"/>
<path d="M0 0 C4.62 0 9.24 0 14 0 C13.67 2.31 13.34 4.62 13 7 C8.71 7 4.42 7 0 7 C0 4.69 0 2.38 0 0 Z " fill="#5EB9AE" transform="translate(236,174)"/>
<path d="M0 0 C5.664 0.365 10.007 1.055 15 4 C14.67 5.32 14.34 6.64 14 8 C3.442 7.221 3.442 7.221 -1 5 C-0.67 3.35 -0.34 1.7 0 0 Z " fill="#5FB5AD" transform="translate(143,176)"/>
<path d="M0 0 C1.236 0.017 1.236 0.017 2.496 0.035 C3.322 0.044 4.149 0.053 5 0.062 C5.638 0.074 6.276 0.086 6.934 0.098 C7.418 7.487 7.418 7.487 5.246 10.223 C2.934 11.098 2.934 11.098 0.184 10.285 C-0.559 9.893 -1.301 9.501 -2.066 9.098 C-2.945 2.945 -2.945 2.945 -3.066 1.098 C-2.066 0.098 -2.066 0.098 0 0 Z " fill="#E09A2E" transform="translate(247.06640625,211.90234375)"/>
<path d="M0 0 C2.475 0.495 2.475 0.495 5 1 C5 6.28 5 11.56 5 17 C3.68 17.33 2.36 17.66 1 18 C0 17 0 17 -0.098 13.184 C-0.091 11.602 -0.079 10.019 -0.062 8.438 C-0.058 7.631 -0.053 6.825 -0.049 5.994 C-0.037 3.996 -0.019 1.998 0 0 Z " fill="#184453" transform="translate(242,91)"/>
<path d="M0 0 C3.625 0.375 3.625 0.375 7 1 C7.625 3.812 7.625 3.812 8 7 C7.01 8.485 7.01 8.485 6 10 C3 10.312 3 10.312 0 10 C-2 8 -2 8 -2.25 5 C-2 2 -2 2 0 0 Z " fill="#DBDEDB" transform="translate(185,389)"/>
<path d="M0 0 C-0.33 1.32 -0.66 2.64 -1 4 C-2.913 4.533 -4.831 5.051 -6.75 5.562 C-7.817 5.853 -8.885 6.143 -9.984 6.441 C-12.843 6.971 -14.316 6.984 -17 6 C-16.67 4.68 -16.34 3.36 -16 2 C-14.275 1.465 -12.545 0.948 -10.812 0.438 C-9.368 0.002 -9.368 0.002 -7.895 -0.441 C-4.872 -1.025 -2.941 -0.812 0 0 Z " fill="#204956" transform="translate(356,173)"/>
<path d="M0 0 C5.273 -0.68 9.394 1.752 14 4 C13.67 5.65 13.34 7.3 13 9 C7.795 8.036 3.401 7.123 -1 4 C-0.67 2.68 -0.34 1.36 0 0 Z " fill="#63B5AE" transform="translate(341,217)"/>
<path d="M0 0 C2 1 2 1 2 1 Z M3 0 C5 1 5 1 5 1 Z M2 1 C2.99 1.66 3.98 2.32 5 3 C4.01 3.99 3.02 4.98 2 6 C1.34 5.67 0.68 5.34 0 5 C0.66 3.68 1.32 2.36 2 1 Z M10 4 C12 6 12 6 12.195 8.383 C12.172 9.288 12.149 10.193 12.125 11.125 C12.107 12.035 12.089 12.945 12.07 13.883 C12.047 14.581 12.024 15.28 12 16 C11.737 15.352 11.474 14.703 11.203 14.035 C10.608 13.028 10.608 13.028 10 12 C7.678 11.598 5.341 11.273 3 11 C-0.438 9.438 -0.438 9.438 -3 8 C-2.67 7.01 -2.34 6.02 -2 5 C-1.505 5.392 -1.01 5.784 -0.5 6.188 C3.415 7.46 6.374 5.637 10 4 Z " fill="#5EB6AC" transform="translate(301,191)"/>
<path d="M0 0 C1.32 0.33 2.64 0.66 4 1 C3.036 6.205 2.123 10.599 -1 15 C-2.32 14.67 -3.64 14.34 -5 14 C-4.534 8.293 -3.062 4.841 0 0 Z " fill="#60B4AD" transform="translate(289,101)"/>
<path d="M0 0 C2.5 0.25 2.5 0.25 4.5 2.25 C4.75 5.25 4.75 5.25 4.5 8.25 C2.5 10.25 2.5 10.25 -0.562 10.438 C-3.5 10.25 -3.5 10.25 -4.5 9.25 C-4.688 5.812 -4.688 5.812 -4.5 2.25 C-2.5 0.25 -2.5 0.25 0 0 Z " fill="#F5F6F5" transform="translate(255.5,388.75)"/>
<path d="M0 0 C4.29 0 8.58 0 13 0 C13 0.99 13 1.98 13 3 C11.35 3 9.7 3 8 3 C8 7.29 8 11.58 8 16 C7.01 16 6.02 16 5 16 C5 11.71 5 7.42 5 3 C3.35 3 1.7 3 0 3 C0 2.01 0 1.02 0 0 Z " fill="#2B525E" transform="translate(286,386)"/>
<path d="M0 0 C8.58 0 17.16 0 26 0 C25.67 0.99 25.34 1.98 25 3 C16.75 3 8.5 3 0 3 C0 2.01 0 1.02 0 0 Z " fill="#42646E" transform="translate(348,393)"/>
<path d="M0 0 C0.99 0 1.98 0 3 0 C3 4.29 3 8.58 3 13 C5.64 13 8.28 13 11 13 C11 13.99 11 14.98 11 16 C7.37 16 3.74 16 0 16 C0 10.72 0 5.44 0 0 Z " fill="#2D5460" transform="translate(323,386)"/>
<path d="M0 0 C0.99 0 1.98 0 3 0 C3.66 1.65 4.32 3.3 5 5 C5.433 4.175 5.866 3.35 6.312 2.5 C6.869 1.675 7.426 0.85 8 0 C8.99 0 9.98 0 11 0 C11 3.3 11 6.6 11 10 C10.34 10 9.68 10 9 10 C8.67 8.68 8.34 7.36 8 6 C7.01 7.32 6.02 8.64 5 10 C4.34 9.01 3.68 8.02 3 7 C2.67 7.99 2.34 8.98 2 10 C1.34 10 0.68 10 0 10 C0 6.7 0 3.4 0 0 Z " fill="#3C606A" transform="translate(420,307)"/>
<path d="M0 0 C0.99 0 1.98 0 3 0 C3.054 2.291 3.093 4.583 3.125 6.875 C3.148 8.151 3.171 9.427 3.195 10.742 C3 14 3 14 1 16 C-2.125 16.125 -2.125 16.125 -5 16 C-5 14.68 -5 13.36 -5 12 C-3.35 12.33 -1.7 12.66 0 13 C0 8.71 0 4.42 0 0 Z " fill="#2C535E" transform="translate(171,386)"/>
<path d="M0 0 C1.32 0.33 2.64 0.66 4 1 C4 1.99 4 2.98 4 4 C3.01 4.33 2.02 4.66 1 5 C1.99 5 2.98 5 4 5 C4 7.31 4 9.62 4 12 C3.34 11.67 2.68 11.34 2 11 C2 10.34 2 9.68 2 9 C1.34 9 0.68 9 0 9 C0 6.03 0 3.06 0 0 Z " fill="#DF8826" transform="translate(250,187)"/>
<path d="M0 0 C1.65 0 3.3 0 5 0 C5.33 1.65 5.66 3.3 6 5 C4.02 5 2.04 5 0 5 C0 3.35 0 1.7 0 0 Z " fill="#D3D8D6" transform="translate(233,389)"/>
<path d="M0 0 C1.65 0 3.3 0 5 0 C5.562 1.938 5.562 1.938 6 4 C5 5 5 5 2.438 5.062 C1.231 5.032 1.231 5.032 0 5 C0 3.35 0 1.7 0 0 Z " fill="#CED4D2" transform="translate(272,389)"/>
<path d="M0 0 C2 1 2 1 2 1 Z M3 0 C5 1 5 1 5 1 Z M2 1 C2.99 1.66 3.98 2.32 5 3 C4.01 3.99 3.02 4.98 2 6 C1.34 5.67 0.68 5.34 0 5 C0.66 3.68 1.32 2.36 2 1 Z M-3 5 C-1.35 5.99 0.3 6.98 2 8 C1.01 8.33 0.02 8.66 -1 9 C-1.66 8.67 -2.32 8.34 -3 8 C-3 7.01 -3 6.02 -3 5 Z " fill="#5FBAAF" transform="translate(301,191)"/>
<path d="M0 0 C0.99 0 1.98 0 3 0 C3 3.3 3 6.6 3 10 C2.34 10 1.68 10 1 10 C0.856 9.051 0.711 8.103 0.562 7.125 C0.171 4.107 0.171 4.107 -1 2 C-0.67 1.34 -0.34 0.68 0 0 Z " fill="#385A65" transform="translate(428,307)"/>
<path d="M0 0 C1.65 0 3.3 0 5 0 C5.33 1.32 5.66 2.64 6 4 C4.02 4 2.04 4 0 4 C0 2.68 0 1.36 0 0 Z " fill="#D7DCD9" transform="translate(205,395)"/>
<path d="M0 0 C1.65 0 3.3 0 5 0 C5 0.99 5 1.98 5 3 C3.35 3.33 1.7 3.66 0 4 C0 2.68 0 1.36 0 0 Z " fill="#DADEDC" transform="translate(205,389)"/>
<path d="M0 0 C0.33 0 0.66 0 1 0 C1 1.65 1 3.3 1 5 C0.34 4.01 -0.32 3.02 -1 2 C-0.67 1.34 -0.34 0.68 0 0 Z M-2 5 C-1.34 5 -0.68 5 0 5 C-0.33 6.65 -0.66 8.3 -1 10 C-1.66 9.67 -2.32 9.34 -3 9 C-2.67 7.68 -2.34 6.36 -2 5 Z " fill="#61B8AE" transform="translate(310,184)"/>
<path d="M0 0 C0.99 0 1.98 0 3 0 C3 0.99 3 1.98 3 3 C2.34 3 1.68 3 1 3 C1 5.31 1 7.62 1 10 C0.67 10 0.34 10 0 10 C0 6.7 0 3.4 0 0 Z " fill="#1F4855" transform="translate(420,307)"/>
<path d="M0 0 C1.5 1.375 1.5 1.375 3 3 C3 3.66 3 4.32 3 5 C1.68 5 0.36 5 -1 5 C-0.67 3.35 -0.34 1.7 0 0 Z " fill="#D3D8D6" transform="translate(309,391)"/>
<path d="M0 0 C0.66 0.66 1.32 1.32 2 2 C1.01 2 0.02 2 -1 2 C-0.67 1.34 -0.34 0.68 0 0 Z " fill="#4FB2A9" transform="translate(215,251)"/>
</svg>